HIERARCHY
ROOT Hips
{
	OFFSET 0.000000 0.000000 0.000000
	CHANNELS 6 Xposition Yposition Zposition Zrotation Yrotation Xrotation 
	JOINT LHipJoint
	{
		OFFSET 0.000000 0.000000 0.000000
		CHANNELS 3 Zrotation Yrotation Xrotation
		JOINT LeftUpLeg
		{
			OFFSET 1.363060 -1.794630 0.839290
			CHANNELS 3 Zrotation Yrotation Xrotation
			JOINT LeftLeg
			{
				OFFSET 2.448110 -6.726130 0.000000
				CHANNELS 3 Zrotation Yrotation Xrotation
				JOINT LeftFoot
				{
					OFFSET 2.562200 -7.039590 0.000000
					CHANNELS 3 Zrotation Yrotation Xrotation
					JOINT LeftToeBase
					{
						OFFSET 0.157640 -0.433110 2.322550
						CHANNELS 3 Zrotation Yrotation Xrotation
						End Site
						{
							OFFSET 0.000000 0.000000 0.000000
						}
					}
				}
			}
		}
	}
	JOINT RHipJoint
	{
		OFFSET 0.000000 0.000000 0.000000
		CHANNELS 3 Zrotation Yrotation Xrotation
		JOINT RightUpLeg
		{
			OFFSET -1.305520 -1.794630 0.839290
			CHANNELS 3 Zrotation Yrotation Xrotation
			JOINT RightLeg
			{
				OFFSET -2.542530 -6.985550 0.000000
				CHANNELS 3 Zrotation Yrotation Xrotation
				JOINT RightFoot
				{
					OFFSET -2.568260 -7.056230 0.000000
					CHANNELS 3 Zrotation Yrotation Xrotation
					JOINT RightToeBase
					{
						OFFSET -0.164730 -0.452590 2.363150
						CHANNELS 3 Zrotation Yrotation Xrotation
						End Site
						{
							OFFSET 0.000000 0.000000 0.000000
						}
					}
				}
			}
		}
	}
}
MOTION
Frames: 30
Frame Time: 0.008333
10.440018 16.816159 1.356926 176.410953 -89.437340 -141.138208 -9.627512 -0.751165 2.021776 -7.663174 -5.075045 -46.478306 -2.067598 -0.086147 25.082855 3.749073 13.362856 -20.798853 -2.840500 -0.000000 -41.593300 7.519153 0.675274 2.104484 5.888152 5.692888 -45.870365 2.864541 -0.223326 25.645650 -2.654001 -4.522105 -22.012621 1.463400 -0.000000 -60.063700
10.415535 16.735633 1.357320 -175.471379 -89.333470 -148.223367 -9.406523 -0.660116 2.135668 -7.692343 -5.581365 -48.731963 -2.093900 0.127795 27.333755 3.850109 13.235874 -21.960929 -3.102900 0.000000 -41.375500 7.667996 0.860462 2.169846 5.749405 5.745311 -48.397751 2.838593 -0.543986 28.310895 -2.640671 -4.132997 -22.796126 1.500899 0.000000 -60.207900
10.393356 16.644420 1.357503 -166.673109 -89.299429 -155.971071 -9.153761 -0.578284 2.230316 -7.731813 -6.065756 -51.079294 -2.115433 0.352089 29.738524 3.948572 13.059200 -23.195802 -3.376600 -0.000000 -41.037600 7.855599 1.044126 2.257626 5.586480 5.818177 -51.040110 2.794401 -0.902332 31.116689 -2.633526 -3.792580 -23.601368 1.537100 0.000000 -60.242600
10.373908 16.541921 1.357562 -157.223357 -89.362212 -164.356620 -8.890011 -0.529423 2.306511 -7.784759 -6.557145 -53.511668 -2.123836 0.583353 32.303239 4.047490 12.854080 -24.494114 -3.661801 0.000000 -40.524500 8.062413 1.207008 2.366946 5.382595 5.895955 -53.790902 2.731545 -1.299921 34.051343 -2.635788 -3.516520 -24.432441 1.576200 -0.000000 -60.153800
10.357585 16.427861 1.357749 -147.708426 -89.522544 -172.803093 -8.655302 -0.533619 2.367502 -7.853516 -7.073935 -56.013336 -2.113131 0.824842 35.026056 4.148440 12.644473 -25.843616 -3.958200 -0.000000 -39.794000 8.250584 1.334267 2.487068 5.125779 5.962312 -56.625474 2.648118 -1.729678 37.101535 -2.649280 -3.310413 -25.287855 1.621800 -0.000001 -59.936100
10.344446 16.301816 1.358089 -138.597963 -89.747152 179.155158 -8.472427 -0.587312 2.421193 -7.936071 -7.624116 -58.580139 -2.080863 1.084067 37.896389 4.254089 12.459627 -27.231544 -4.266300 -0.000000 -38.820000 8.398368 1.433443 2.608434 4.808543 6.014877 -59.525037 2.539044 -2.178199 40.260454 -2.674442 -3.171052 -26.165162 1.677200 0.000001 -59.588700
10.334575 16.163842 1.358833 -130.674023 -89.989563 172.290743 -8.345247 -0.671918 2.472441 -8.016249 -8.198021 -61.203371 -2.025407 1.368634 40.899582 4.364891 12.320938 -28.641785 -4.585200 0.000000 -37.605200 8.501793 1.526470 2.720549 4.444500 6.060116 -62.455229 2.400982 -2.629625 43.509210 -2.710563 -3.092307 -27.057735 1.744800 -0.000000 -59.119200
10.327657 16.013995 1.359953 55.798425 -89.776180 -13.134646 -8.257759 -0.769357 2.523750 -8.078610 -8.788749 -63.878423 -1.944179 1.678496 44.019100 4.481071 12.242855 -30.053690 -4.914500 0.000000 -36.179000 8.575683 1.632504 2.822073 4.047727 6.104205 -65.394700 2.233411 -3.075088 46.826038 -2.756391 -3.068860 -27.962212 1.825800 0.000000 -58.540600
10.323145 15.852637 1.361486 60.694424 -89.559954 -16.998248 -8.195488 -0.870094 2.575715 -8.110048 -9.391070 -66.595991 -1.834418 2.008910 47.233038 4.601368 12.231376 -31.443604 -5.252500 0.000000 -34.601100 8.633017 1.760736 2.913701 3.633775 6.147752 -68.323773 2.038779 -3.510021 50.182911 -2.810276 -3.094725 -28.875147 1.920400 0.000000 -57.871800
10.320257 15.680429 1.363425 64.099564 -89.360962 -19.385131 -8.148935 -0.971470 2.628959 -8.103919 -10.002826 -69.344571 -1.694351 2.352749 50.513833 4.723854 12.287467 -32.786693 -5.596600 0.000000 -32.957100 8.681777 1.911901 2.997635 3.213660 6.187285 -71.228078 1.820588 -3.932722 53.551213 -2.870280 -3.162340 -29.792598 2.027800 -0.000000 -57.137899
10.318083 15.498142 1.365589 66.319036 -89.171405 -20.596293 -8.112265 -1.073956 2.686066 -8.060575 -10.625266 -72.117103 -1.523948 2.702692 53.831002 4.846635 12.407766 -34.060928 -5.943700 -0.000001 -31.345200 8.726116 2.081882 3.079159 2.789989 6.218475 -74.106746 1.581617 -4.343342 56.907264 -2.934977 -3.264655 -30.711145 2.146900 -0.000000 -56.366000
10.315558 15.306919 1.367829 67.580727 -88.984873 -20.853559 -8.082751 -1.178065 2.749082 -7.981892 -11.258056 -74.903501 -1.324567 3.052451 57.151127 4.967673 12.586239 -35.247652 -6.289800 -0.000000 -29.870300 8.767167 2.265891 3.161867 2.364773 6.237633 -76.956548 1.324355 -4.741800 60.227464 -3.003115 -3.395203 -31.624883 2.276299 0.000000 -55.587100
10.311635 15.107937 1.369900 68.196853 -88.792650 -20.461503 -8.057963 -1.283784 2.821329 -7.872965 -11.902329 -77.698793 -1.098893 3.397165 60.443767 5.085522 12.813770 -36.335613 -6.631300 -0.000000 -28.624300 8.805847 2.458816 3.251770 1.933263 6.241986 -79.784251 1.049865 -5.128783 63.495233 -3.074331 -3.550472 -32.528956 2.415400 -0.000000 -54.832400
10.305383 14.902673 1.371563 68.398554 -88.587629 -19.645845 -8.035951 -1.390280 2.905003 -7.738703 -12.558297 -80.495538 -0.850322 3.733339 63.680618 5.199098 13.080015 -37.319788 -6.964500 0.000000 -27.679800 8.842703 2.656706 3.353457 1.489907 6.229296 -82.593216 0.758669 -5.504601 66.695921 -3.148747 -3.729670 -33.417854 2.564000 -0.000000 -54.131100
10.295949 14.692679 1.372635 68.367125 -88.364161 -18.582375 -8.015164 -1.496215 3.000686 -7.584010 -13.224969 -83.282368 -0.582746 4.058585 66.837690 5.307678 13.373899 -38.202193 -7.286699 -0.000000 -27.082100 8.878546 2.856671 3.469833 1.028741 6.196509 -85.382429 0.450941 -5.869327 69.817974 -3.227014 -3.935086 -34.286841 2.723101 -0.000000 -53.510500
10.282800 14.479607 1.372921 68.256303 -88.116795 -17.424796 -7.993894 -1.599909 3.108487 -7.414482 -13.901973 -86.048169 -0.300281 4.371695 69.896415 5.411188 13.684465 -38.991851 -7.596400 0.000001 -26.845300 8.914449 3.056758 3.603695 0.542013 6.140377 -88.150372 0.126426 -6.222941 72.853947 -3.310134 -4.170776 -35.133171 2.894500 0.000000 -52.992100
10.265516 14.265140 1.372322 68.143873 -87.841890 -16.252772 -7.971116 -1.699732 3.226492 -7.235225 -14.588110 -88.776018 -0.007050 4.671987 72.842525 5.509755 14.001620 -39.702886 -7.893500 -0.000000 -26.955800 8.951480 3.256020 3.754981 0.024154 6.055923 -90.886407 -0.214691 -6.564934 75.797511 -3.399077 -4.441534 -35.955612 3.080599 0.000000 -52.592900
10.244097 14.051132 1.370835 68.061877 -87.537252 -15.106835 -7.946246 -1.794752 3.350448 -7.051124 -15.280535 -91.442502 0.292856 4.959102 75.665331 5.603409 14.316178 -40.352157 -8.178700 -0.000000 -27.376100 8.990434 3.454212 3.920438 -0.526221 5.937513 -93.570675 -0.571502 -6.894454 78.642887 -3.494476 -4.751197 -36.754610 3.284000 0.000000 -52.324100
10.218639 13.839273 1.368476 68.020583 -87.200919 -14.008347 -7.918929 -1.884129 3.476309 -6.867871 -15.978135 -94.024445 0.595565 5.232853 78.358201 5.692452 14.620146 -40.958907 -8.454000 -0.000001 -28.048400 9.032191 3.651284 4.096334 -1.109261 5.778643 -96.180542 -0.942566 -7.210586 81.385814 -3.596479 -5.101296 -37.532424 3.506500 0.000000 -52.190100
10.189358 13.631258 1.365391 67.997736 -86.832675 -12.947138 -7.889390 -1.967767 3.598786 -6.690493 -16.678736 -96.494854 0.897460 5.492753 80.916643 5.777092 14.907515 -41.541618 -8.721700 -0.000000 -28.903400 9.077268 3.847218 4.276401 -1.719515 5.573691 -98.686592 -1.325329 -7.512196 84.021166 -3.704548 -5.490295 -38.292067 3.749200 0.000000 -52.191000
10.156646 13.428732 1.361788 67.957223 -86.433779 -11.901969 -7.857983 -2.046035 3.712921 -6.523410 -17.380410 -98.828132 1.195289 5.738114 83.338085 5.857256 15.173063 -42.115686 -8.983700 0.000001 -29.868400 9.125808 4.041818 4.453675 -2.347683 5.319014 -101.058038 -1.716284 -7.798179 86.542918 -3.817426 -5.913004 -39.036592 4.011600 -0.000000 -52.322700
10.120639 13.232900 1.357945 67.853276 -86.010026 -10.837489 -7.825914 -2.119685 3.816559 -6.366607 -18.077994 -101.006988 1.486449 5.968431 85.622890 5.932768 15.412055 -42.693236 -9.240900 0.000000 -30.876500 9.177420 4.233036 4.623368 -2.978834 5.018721 -103.269097 -2.110985 -8.067239 88.944179 -3.933563 -6.360875 -39.769095 4.292000 -0.000000 -52.564400
10.082149 13.045738 1.353966 67.685770 -85.556171 -9.771931 -7.791964 -2.189418 3.902394 -6.228981 -18.778857 -102.997055 1.767578 6.180312 87.762737 6.003676 15.627173 -43.277071 -9.494900 0.000001 -31.865200 9.232711 4.423572 4.773477 -3.605942 4.663073 -105.282060 -2.504870 -8.318715 91.215884 -4.049795 -6.824801 -40.485178 4.586200 0.000000 -52.937400
10.040782 12.867743 1.350292 67.399765 -85.088381 -8.651179 -7.758784 -2.256081 3.975245 -6.100401 -19.469719 -104.804948 2.037572 6.374260 89.763389 6.069325 15.813661 -43.868761 -9.742800 0.000000 -32.797799 9.289973 4.607732 4.906104 -4.206616 4.274618 -107.091109 -2.892233 -8.551114 93.350112 -4.164962 -7.293022 -41.187509 4.890500 -0.000000 -53.389000
9.996690 12.700052 1.347176 66.966409 -84.615678 -7.453559 -7.727298 -2.320667 4.035688 -5.975416 -20.143680 -106.424506 2.294787 6.548703 91.622436 6.129204 15.973085 -44.461576 -9.981999 0.000000 -33.651200 9.347895 4.783800 5.017629 -4.765916 3.866983 -108.682031 -3.267536 -8.763225 95.337131 -4.277284 -7.756992 -41.871448 5.200600 0.000001 -53.892600
9.949795 12.543648 1.344684 66.422438 -84.140390 -6.217389 -7.697265 -2.382322 4.086309 -5.852977 -20.803252 -107.852447 2.537231 6.701097 93.333543 6.183717 16.111692 -45.043971 -10.211300 -0.000000 -34.413300 9.406559 4.951321 5.107670 -5.280381 3.447151 -110.051621 -3.626311 -8.954300 97.168426 -4.384973 -8.210596 -42.527325 5.511200 -0.000000 -54.449901
9.899630 12.399106 1.342907 65.778610 -83.673229 -4.949746 -7.669917 -2.440485 4.132944 -5.724733 -21.440568 -109.098426 2.763809 6.830527 94.894221 6.233175 16.235201 -45.603353 -10.428500 0.000000 -35.089300 9.464972 5.107518 5.180371 -5.743665 3.034226 -111.207323 -3.964232 -9.122928 98.836905 -4.487824 -8.652196 -43.147379 5.819300 -0.000001 -55.031400
9.845952 12.267088 1.342115 64.988896 -83.234315 -3.603836 -7.647813 -2.496302 4.181148 -5.573073 -22.033163 -110.177789 2.974455 6.937552 96.305808 6.277115 16.347457 -46.127661 -10.630700 -0.000000 -35.696799 9.519994 5.248814 5.239409 -6.142631 2.660205 -112.157524 -4.276744 -9.266912 100.336230 -4.587545 -9.087253 -43.727191 6.125900 0.000000 -55.575099
9.788229 12.148153 1.342196 64.089502 -82.830203 -2.210729 -7.631769 -2.548516 4.235870 -5.393380 -22.574580 -111.096881 3.167895 7.021229 97.563567 6.316744 16.458691 -46.606377 -10.819599 0.000000 -36.249000 9.571215 5.374388 5.289630 -6.480632 2.338535 -112.913556 -4.561149 -9.384993 101.663937 -4.685391 -9.523152 -44.260542 6.432000 0.000000 -56.046200
9.726045 12.042975 1.342950 63.130419 -82.465916 -0.817978 -7.622492 -2.596415 4.302262 -5.183085 -23.058946 -111.861403 3.342818 7.081099 98.662676 6.354046 16.581528 -47.032506 -10.999300 -0.000000 -36.763400 9.618476 5.482826 5.338646 -6.768644 2.081576 -113.489164 -4.816142 -9.474947 102.818170 -4.783424 -9.974562 -44.737923 6.741301 0.000000 -56.471200
